<svg xmlns="http://www.w3.org/2000/svg" viewBox="0 0 600 420" width="600" height="420" role="img" aria-label="Machine-learning interatomic potentials are trained on DFT data and drive molecular dynamics; a generative model then takes long time steps that plain MD covers in many femtosecond steps" font-family="Inter, 'Helvetica Neue', Arial, sans-serif">
<title>Machine-learning interatomic potentials are trained on DFT data and drive molecular dynamics; a generative model then takes long time steps that plain MD covers in many femtosecond steps</title>
<defs>
<marker id="ai" viewBox="0 0 10 10" refX="8.5" refY="5" markerWidth="7" markerHeight="7" orient="auto-start-reverse"><path d="M0,0 L10,5 L0,10 z" fill="#111827"/></marker>
<marker id="aa" viewBox="0 0 10 10" refX="8.5" refY="5" markerWidth="7" markerHeight="7" orient="auto-start-reverse"><path d="M0,0 L10,5 L0,10 z" fill="#F59E0B"/></marker>
<marker id="ag" viewBox="0 0 10 10" refX="8.5" refY="5" markerWidth="7" markerHeight="7" orient="auto-start-reverse"><path d="M0,0 L10,5 L0,10 z" fill="#9ca3af"/></marker>
</defs>
<rect width="600" height="420" fill="#ffffff"/>
<text x="95" y="36" font-size="15" font-weight="700" fill="#111827" text-anchor="middle" >DFT data</text>
<text x="300" y="36" font-size="15" font-weight="700" fill="#111827" text-anchor="middle" >ML interatomic potential</text>
<text x="505" y="36" font-size="15" font-weight="700" fill="#111827" text-anchor="middle" >Outputs</text>
<rect x="30" y="48" width="130" height="120" rx="8" fill="#f3f4f6" stroke="none" stroke-width="1.5" opacity="1"/>
<circle cx="56" cy="70" r="6" fill="#4b5563" stroke="none" stroke-width="0" opacity="1"/>
<circle cx="56" cy="95" r="4.5" fill="#9ca3af" stroke="none" stroke-width="0" opacity="1"/>
<circle cx="56" cy="120" r="6" fill="#4b5563" stroke="none" stroke-width="0" opacity="1"/>
<circle cx="56" cy="145" r="4.5" fill="#9ca3af" stroke="none" stroke-width="0" opacity="1"/>
<circle cx="82" cy="70" r="4.5" fill="#9ca3af" stroke="none" stroke-width="0" opacity="1"/>
<circle cx="82" cy="95" r="6" fill="#4b5563" stroke="none" stroke-width="0" opacity="1"/>
<circle cx="82" cy="120" r="4.5" fill="#9ca3af" stroke="none" stroke-width="0" opacity="1"/>
<circle cx="82" cy="145" r="6" fill="#4b5563" stroke="none" stroke-width="0" opacity="1"/>
<circle cx="108" cy="70" r="6" fill="#4b5563" stroke="none" stroke-width="0" opacity="1"/>
<circle cx="108" cy="95" r="4.5" fill="#9ca3af" stroke="none" stroke-width="0" opacity="1"/>
<circle cx="108" cy="120" r="6" fill="#4b5563" stroke="none" stroke-width="0" opacity="1"/>
<circle cx="108" cy="145" r="4.5" fill="#9ca3af" stroke="none" stroke-width="0" opacity="1"/>
<circle cx="134" cy="70" r="4.5" fill="#9ca3af" stroke="none" stroke-width="0" opacity="1"/>
<circle cx="134" cy="95" r="6" fill="#4b5563" stroke="none" stroke-width="0" opacity="1"/>
<circle cx="134" cy="120" r="4.5" fill="#9ca3af" stroke="none" stroke-width="0" opacity="1"/>
<circle cx="134" cy="145" r="6" fill="#4b5563" stroke="none" stroke-width="0" opacity="1"/>
<text x="95" y="190" font-size="13" font-weight="500" fill="#4b5563" text-anchor="middle" >~100 atoms · ps</text>
<rect x="205" y="48" width="190" height="120" rx="8" fill="#f3f4f6" stroke="none" stroke-width="1.5" opacity="1"/>
<line x1="240" y1="80" x2="290" y2="66" stroke="#9ca3af" stroke-width="1.6" stroke-linecap="round" opacity="1"/>
<line x1="290" y1="66" x2="345" y2="84" stroke="#9ca3af" stroke-width="1.6" stroke-linecap="round" opacity="1"/>
<line x1="240" y1="80" x2="258" y2="130" stroke="#9ca3af" stroke-width="1.6" stroke-linecap="round" opacity="1"/>
<line x1="290" y1="66" x2="312" y2="118" stroke="#9ca3af" stroke-width="1.6" stroke-linecap="round" opacity="1"/>
<line x1="345" y1="84" x2="312" y2="118" stroke="#9ca3af" stroke-width="1.6" stroke-linecap="round" opacity="1"/>
<line x1="258" y1="130" x2="312" y2="118" stroke="#9ca3af" stroke-width="1.6" stroke-linecap="round" opacity="1"/>
<line x1="312" y1="118" x2="362" y2="142" stroke="#9ca3af" stroke-width="1.6" stroke-linecap="round" opacity="1"/>
<line x1="345" y1="84" x2="362" y2="142" stroke="#9ca3af" stroke-width="1.6" stroke-linecap="round" opacity="1"/>
<line x1="258" y1="130" x2="224" y2="150" stroke="#9ca3af" stroke-width="1.6" stroke-linecap="round" opacity="1"/>
<line x1="240" y1="80" x2="224" y2="150" stroke="#9ca3af" stroke-width="1.6" stroke-linecap="round" opacity="1"/>
<line x1="290" y1="66" x2="312" y2="118" stroke="#F59E0B" stroke-width="3.2" stroke-linecap="round" opacity="1"/>
<line x1="312" y1="118" x2="258" y2="130" stroke="#F59E0B" stroke-width="3.2" stroke-linecap="round" opacity="1"/>
<circle cx="240" cy="80" r="6" fill="#111827" stroke="none" stroke-width="0" opacity="1"/>
<circle cx="290" cy="66" r="6" fill="#111827" stroke="none" stroke-width="0" opacity="1"/>
<circle cx="345" cy="84" r="6" fill="#111827" stroke="none" stroke-width="0" opacity="1"/>
<circle cx="258" cy="130" r="6" fill="#111827" stroke="none" stroke-width="0" opacity="1"/>
<circle cx="312" cy="118" r="7.5" fill="#F59E0B" stroke="none" stroke-width="0" opacity="1"/>
<circle cx="362" cy="142" r="6" fill="#111827" stroke="none" stroke-width="0" opacity="1"/>
<circle cx="224" cy="150" r="6" fill="#111827" stroke="none" stroke-width="0" opacity="1"/>
<text x="300" y="190" font-size="13" font-weight="500" fill="#4b5563" text-anchor="middle" >graph neural network</text>
<rect x="430" y="48" width="150" height="120" rx="8" fill="#f3f4f6" stroke="none" stroke-width="1.5" opacity="1"/>
<text x="505" y="78" font-size="14" font-weight="600" fill="#111827" text-anchor="middle" >energy</text>
<text x="505" y="102" font-size="14" font-weight="600" fill="#111827" text-anchor="middle" >forces</text>
<text x="505" y="126" font-size="14" font-weight="600" fill="#111827" text-anchor="middle" >stress</text>
<text x="505" y="150" font-size="14" font-weight="600" fill="#111827" text-anchor="middle" >magnetic moments</text>
<line x1="165" y1="108" x2="198" y2="108" stroke="#111827" stroke-width="2" stroke-linecap="round" marker-end="url(#ai)" opacity="1"/>
<text x="181" y="100" font-size="12" font-weight="600" fill="#111827" text-anchor="middle" ></text>
<line x1="400" y1="108" x2="423" y2="108" stroke="#111827" stroke-width="2" stroke-linecap="round" marker-end="url(#ai)" opacity="1"/>
<line x1="30" y1="222" x2="570" y2="222" stroke="#d1d5db" stroke-width="1.5" stroke-linecap="round" opacity="1"/>
<text x="30" y="252" font-size="14" font-weight="700" fill="#111827" text-anchor="start" >Molecular dynamics with the potential</text>
<text x="30" y="342" font-size="14" font-weight="700" fill="#b45309" text-anchor="start" >Generative model (LiFlow)</text>
<path d="M40.0,292.0 L47.0,302.8 L54.0,306.4 L61.0,304.7 L68.0,306.5 L75.0,305.8 L82.0,298.8 L89.0,296.5 L96.0,302.7 L103.0,294.5 L110.0,291.7 L117.0,296.7 L124.0,288.8 L131.0,289.9 L138.0,284.0 L145.0,283.6 L152.0,277.0 L159.0,280.5 L166.0,282.0 L173.0,278.2 L180.0,280.6 L187.0,280.5 L194.0,275.6 L201.0,284.1 L208.0,284.3 L215.0,283.6 L222.0,283.4 L229.0,294.3 L236.0,293.1 L243.0,298.1 L250.0,302.2 L257.0,302.8 L264.0,306.7 L271.0,303.0 L278.0,308.2 L285.0,305.3 L292.0,310.3 L299.0,309.4 L306.0,300.8 L313.0,299.9 L320.0,299.0 L327.0,304.4 L334.0,296.8 L341.0,296.2 L348.0,290.3 L355.0,289.7 L362.0,285.9 L369.0,283.2 L376.0,283.4 L383.0,281.6 L390.0,283.5 L397.0,280.3 L404.0,282.3 L411.0,281.7 L418.0,283.5 L425.0,281.4 L432.0,277.7 L439.0,286.6 L446.0,289.8 L453.0,291.6 L460.0,290.8 L467.0,294.9 L474.0,292.5 L481.0,301.2 L488.0,300.9 L495.0,300.0 L502.0,299.4 L509.0,308.5 L516.0,310.6 L523.0,301.9 L530.0,308.8 L537.0,304.1 L544.0,300.3 L551.0,300.1 L558.0,302.9 L565.0,301.7" stroke="#4b5563" stroke-width="1.6" fill="none" stroke-linecap="round" stroke-linejoin="round" opacity="1" />
<circle cx="40" cy="292" r="1.8" fill="#4b5563" stroke="none" stroke-width="0" opacity="1"/>
<circle cx="54" cy="306.3556105637361" r="1.8" fill="#4b5563" stroke="none" stroke-width="0" opacity="1"/>
<circle cx="68" cy="306.5429815782586" r="1.8" fill="#4b5563" stroke="none" stroke-width="0" opacity="1"/>
<circle cx="82" cy="298.83915022739217" r="1.8" fill="#4b5563" stroke="none" stroke-width="0" opacity="1"/>
<circle cx="96" cy="302.65644991142693" r="1.8" fill="#4b5563" stroke="none" stroke-width="0" opacity="1"/>
<circle cx="110" cy="291.69281434246767" r="1.8" fill="#4b5563" stroke="none" stroke-width="0" opacity="1"/>
<circle cx="124" cy="288.78750057699847" r="1.8" fill="#4b5563" stroke="none" stroke-width="0" opacity="1"/>
<circle cx="138" cy="283.99616297861803" r="1.8" fill="#4b5563" stroke="none" stroke-width="0" opacity="1"/>
<circle cx="152" cy="276.9854116752645" r="1.8" fill="#4b5563" stroke="none" stroke-width="0" opacity="1"/>
<circle cx="166" cy="282.03616005966745" r="1.8" fill="#4b5563" stroke="none" stroke-width="0" opacity="1"/>
<circle cx="180" cy="280.574945775532" r="1.8" fill="#4b5563" stroke="none" stroke-width="0" opacity="1"/>
<circle cx="194" cy="275.5670658188528" r="1.8" fill="#4b5563" stroke="none" stroke-width="0" opacity="1"/>
<circle cx="208" cy="284.31007621050236" r="1.8" fill="#4b5563" stroke="none" stroke-width="0" opacity="1"/>
<circle cx="222" cy="283.3983005399125" r="1.8" fill="#4b5563" stroke="none" stroke-width="0" opacity="1"/>
<circle cx="236" cy="293.0581820314509" r="1.8" fill="#4b5563" stroke="none" stroke-width="0" opacity="1"/>
<circle cx="250" cy="302.17307414298745" r="1.8" fill="#4b5563" stroke="none" stroke-width="0" opacity="1"/>
<circle cx="264" cy="306.7469082929484" r="1.8" fill="#4b5563" stroke="none" stroke-width="0" opacity="1"/>
<circle cx="278" cy="308.2054660113453" r="1.8" fill="#4b5563" stroke="none" stroke-width="0" opacity="1"/>
<circle cx="292" cy="310.3458081082798" r="1.8" fill="#4b5563" stroke="none" stroke-width="0" opacity="1"/>
<circle cx="306" cy="300.7788870363613" r="1.8" fill="#4b5563" stroke="none" stroke-width="0" opacity="1"/>
<circle cx="320" cy="298.97718347878646" r="1.8" fill="#4b5563" stroke="none" stroke-width="0" opacity="1"/>
<circle cx="334" cy="296.78446031365" r="1.8" fill="#4b5563" stroke="none" stroke-width="0" opacity="1"/>
<circle cx="348" cy="290.28146079530757" r="1.8" fill="#4b5563" stroke="none" stroke-width="0" opacity="1"/>
<circle cx="362" cy="285.9398520168987" r="1.8" fill="#4b5563" stroke="none" stroke-width="0" opacity="1"/>
<circle cx="376" cy="283.43778616702866" r="1.8" fill="#4b5563" stroke="none" stroke-width="0" opacity="1"/>
<circle cx="390" cy="283.4665709487707" r="1.8" fill="#4b5563" stroke="none" stroke-width="0" opacity="1"/>
<circle cx="404" cy="282.33056819345836" r="1.8" fill="#4b5563" stroke="none" stroke-width="0" opacity="1"/>
<circle cx="418" cy="283.54233402926116" r="1.8" fill="#4b5563" stroke="none" stroke-width="0" opacity="1"/>
<circle cx="432" cy="277.74587074306817" r="1.8" fill="#4b5563" stroke="none" stroke-width="0" opacity="1"/>
<circle cx="446" cy="289.7835616665339" r="1.8" fill="#4b5563" stroke="none" stroke-width="0" opacity="1"/>
<circle cx="460" cy="290.8215419372784" r="1.8" fill="#4b5563" stroke="none" stroke-width="0" opacity="1"/>
<circle cx="474" cy="292.4994346436701" r="1.8" fill="#4b5563" stroke="none" stroke-width="0" opacity="1"/>
<circle cx="488" cy="300.90189909950647" r="1.8" fill="#4b5563" stroke="none" stroke-width="0" opacity="1"/>
<circle cx="502" cy="299.4242451496905" r="1.8" fill="#4b5563" stroke="none" stroke-width="0" opacity="1"/>
<circle cx="516" cy="310.64288085237536" r="1.8" fill="#4b5563" stroke="none" stroke-width="0" opacity="1"/>
<circle cx="530" cy="308.7614728973651" r="1.8" fill="#4b5563" stroke="none" stroke-width="0" opacity="1"/>
<circle cx="544" cy="300.32787648073514" r="1.8" fill="#4b5563" stroke="none" stroke-width="0" opacity="1"/>
<circle cx="558" cy="302.90063554972966" r="1.8" fill="#4b5563" stroke="none" stroke-width="0" opacity="1"/>
<text x="570" y="252" font-size="13" font-weight="500" fill="#4b5563" text-anchor="end" >1 fs per step</text>
<line x1="520" y1="316" x2="520" y2="346" stroke="#9ca3af" stroke-width="1.8" stroke-linecap="round" marker-end="url(#ag)" stroke-dasharray="4 4" opacity="1"/>
<text x="512" y="336" font-size="12" font-weight="500" fill="#4b5563" text-anchor="end" >training data</text>
<path d="M40,386 Q105.0,342 164,366" stroke="#F59E0B" stroke-width="3" fill="none" stroke-linecap="round" stroke-linejoin="round" marker-end="url(#aa)" opacity="1" />
<path d="M170,368 Q235.0,342 294,390" stroke="#F59E0B" stroke-width="3" fill="none" stroke-linecap="round" stroke-linejoin="round" marker-end="url(#aa)" opacity="1" />
<path d="M300,392 Q365.0,344 424,368" stroke="#F59E0B" stroke-width="3" fill="none" stroke-linecap="round" stroke-linejoin="round" marker-end="url(#aa)" opacity="1" />
<path d="M430,370 Q495.0,344 554,382" stroke="#F59E0B" stroke-width="3" fill="none" stroke-linecap="round" stroke-linejoin="round" marker-end="url(#aa)" opacity="1" />
<circle cx="40" cy="386" r="5.5" fill="#111827" stroke="none" stroke-width="0" opacity="1"/>
<circle cx="170" cy="368" r="5.5" fill="#111827" stroke="none" stroke-width="0" opacity="1"/>
<circle cx="300" cy="392" r="5.5" fill="#111827" stroke="none" stroke-width="0" opacity="1"/>
<circle cx="430" cy="370" r="5.5" fill="#111827" stroke="none" stroke-width="0" opacity="1"/>
<circle cx="560" cy="384" r="5.5" fill="#111827" stroke="none" stroke-width="0" opacity="1"/>
<text x="570" y="408" font-size="13" font-weight="600" fill="#b45309" text-anchor="end" >one step ≈ 1,000 MD steps</text>
</svg>
